<svg xmlns="http://www.w3.org/2000/svg" xmlns:xlink="http://www.w3.org/1999/xlink" width="500" zoomAndPan="magnify" viewBox="0 0 375 374.999991" height="500" preserveAspectRatio="xMidYMid meet" version="1.0"><defs><g/></defs><g fill="#171616" fill-opacity="1"><g transform="translate(11.839345, 252.60477)"><g><path d="M 1.921875 0 L 1.921875 -135.03125 L 65.96875 -135.03125 C 76.894531 -135.03125 86.441406 -133.128906 94.609375 -129.328125 C 102.773438 -125.535156 109.585938 -120.425781 115.046875 -114 C 120.515625 -107.570312 124.597656 -100.335938 127.296875 -92.296875 C 130.003906 -84.265625 131.359375 -76.003906 131.359375 -67.515625 C 131.359375 -59.023438 130.003906 -50.757812 127.296875 -42.71875 C 124.597656 -34.6875 120.515625 -27.453125 115.046875 -21.015625 C 109.585938 -14.585938 102.773438 -9.476562 94.609375 -5.6875 C 86.441406 -1.894531 76.894531 0 65.96875 0 Z M 66.9375 -52.265625 C 70.40625 -52.265625 73.164062 -53.328125 75.21875 -55.453125 C 77.28125 -57.578125 78.664062 -60.148438 79.375 -63.171875 C 80.082031 -66.191406 80.082031 -69.242188 79.375 -72.328125 C 78.664062 -75.421875 77.28125 -78.023438 75.21875 -80.140625 C 73.164062 -82.265625 70.40625 -83.328125 66.9375 -83.328125 L 51.890625 -83.328125 L 51.890625 -52.265625 Z M 66.9375 -52.265625 "/></g></g></g><path stroke-linecap="butt" transform="matrix(1.18346, 0, 0, 1.18346, 100.4294, 70.002658)" fill="none" stroke-linejoin="miter" d="M 55.432239 125.912949 C 50.603312 125.912949 46.058245 125.005256 41.787136 123.18987 C 37.519327 121.354679 33.763128 118.813138 30.518538 115.568548 C 27.273947 112.323957 24.745609 108.567758 22.930223 104.29995 C 21.114837 100.032142 20.207143 95.483774 20.207143 90.654846 C 20.207143 85.750002 21.114837 81.18183 22.930223 76.95363 C 24.745609 72.72213 27.273947 68.985735 30.518538 65.741144 C 33.763128 62.496554 37.519327 59.968216 41.787136 58.15283 C 46.058245 56.337443 50.603312 55.42975 55.432239 55.42975 C 60.337083 55.42975 64.905255 56.337443 69.136756 58.15283 C 73.38476 59.968216 77.121155 62.496554 80.345941 65.741144 C 83.590531 68.985735 86.12217 72.72213 87.937556 76.95363 C 89.772747 81.18183 90.690342 85.750002 90.690342 90.654846 C 90.690342 95.483774 89.772747 100.032142 87.937556 104.29995 C 86.12217 108.567758 83.590531 112.323957 80.345941 115.568548 C 77.121155 118.813138 73.38476 121.354679 69.136756 123.18987 C 64.905255 125.005256 60.337083 125.912949 55.432239 125.912949 Z M 55.432239 84.601358 C 53.771986 84.601358 52.342782 85.198785 51.144627 86.39694 C 49.966276 87.575291 49.378751 88.994593 49.378751 90.654846 C 49.378751 92.3184 49.966276 93.744304 51.144627 94.942459 C 52.342782 96.120809 53.771986 96.711635 55.432239 96.711635 C 57.092493 96.711635 58.515095 96.120809 59.690145 94.942459 C 60.8883 93.744304 61.489028 92.3184 61.489028 90.654846 C 61.489028 88.994593 60.8883 87.575291 59.690145 86.39694 C 58.515095 85.198785 57.092493 84.601358 55.432239 84.601358 Z M 55.432239 84.601358 " stroke="#fff9f9" stroke-width="8.900025" stroke-opacity="1" stroke-miterlimit="4"/><g fill="#171616" fill-opacity="1"><g transform="translate(123.211009, 216.751726)"><g><path d="M 42.828125 2.25 C 37.117188 2.25 31.734375 1.171875 26.671875 -0.984375 C 21.617188 -3.140625 17.171875 -6.132812 13.328125 -9.96875 C 9.492188 -13.8125 6.5 -18.257812 4.34375 -23.3125 C 2.195312 -28.363281 1.125 -33.742188 1.125 -39.453125 C 1.125 -45.265625 2.195312 -50.671875 4.34375 -55.671875 C 6.5 -60.679688 9.492188 -65.101562 13.328125 -68.9375 C 17.171875 -72.78125 21.617188 -75.773438 26.671875 -77.921875 C 31.734375 -80.078125 37.117188 -81.15625 42.828125 -81.15625 C 48.628906 -81.15625 54.035156 -80.078125 59.046875 -77.921875 C 64.054688 -75.773438 68.476562 -72.78125 72.3125 -68.9375 C 76.15625 -65.101562 79.148438 -60.679688 81.296875 -55.671875 C 83.453125 -50.671875 84.53125 -45.265625 84.53125 -39.453125 C 84.53125 -33.742188 83.453125 -28.363281 81.296875 -23.3125 C 79.148438 -18.257812 76.15625 -13.8125 72.3125 -9.96875 C 68.476562 -6.132812 64.054688 -3.140625 59.046875 -0.984375 C 54.035156 1.171875 48.628906 2.25 42.828125 2.25 Z M 42.828125 -46.625 C 40.859375 -46.625 39.171875 -45.921875 37.765625 -44.515625 C 36.367188 -43.109375 35.671875 -41.421875 35.671875 -39.453125 C 35.671875 -37.492188 36.367188 -35.8125 37.765625 -34.40625 C 39.171875 -33 40.859375 -32.296875 42.828125 -32.296875 C 44.796875 -32.296875 46.476562 -33 47.875 -34.40625 C 49.28125 -35.8125 49.984375 -37.492188 49.984375 -39.453125 C 49.984375 -41.421875 49.28125 -43.109375 47.875 -44.515625 C 46.476562 -45.921875 44.796875 -46.625 42.828125 -46.625 Z M 42.828125 -46.625 "/></g></g></g><path stroke-linecap="butt" transform="matrix(1.18346, 0, 0, 1.18346, 162.380809, 109.417214)" fill="none" stroke-linejoin="miter" d="M 72.940614 57.426258 L 72.940614 85.323794 L 61.672016 85.323794 C 60.493666 85.323794 59.906141 85.91462 59.906141 87.092971 L 59.906141 124.001425 L 30.704827 124.001425 L 30.704827 88.281224 C 30.704827 82.042896 32.044912 76.626443 34.731683 72.028565 C 37.415155 67.430687 41.15155 63.849424 45.940869 61.281478 C 50.730188 58.713532 56.215955 57.426258 62.39487 57.426258 Z M 72.940614 57.426258 " stroke="#fff9f9" stroke-width="8.900025" stroke-opacity="1" stroke-miterlimit="4"/><g fill="#171616" fill-opacity="1"><g transform="translate(197.311377, 256.166282)"><g><path d="M 51.390625 -78.78125 L 51.390625 -45.78125 L 38.046875 -45.78125 C 36.648438 -45.78125 35.953125 -45.078125 35.953125 -43.671875 L 35.953125 0 L 1.40625 0 L 1.40625 -42.265625 C 1.40625 -49.660156 2.992188 -56.070312 6.171875 -61.5 C 9.359375 -66.9375 13.78125 -71.175781 19.4375 -74.21875 C 25.101562 -77.257812 31.585938 -78.78125 38.890625 -78.78125 Z M 51.390625 -78.78125 "/></g></g></g><g fill="#171616" fill-opacity="1"><g transform="translate(237.925798, 256.166282)"><g><path d="M 80.328125 0 L 46.765625 0 L 46.765625 -39.875 C 46.765625 -42.03125 46.222656 -43.644531 45.140625 -44.71875 C 44.066406 -45.800781 42.800781 -46.34375 41.34375 -46.34375 C 39.894531 -46.34375 38.632812 -45.828125 37.5625 -44.796875 C 36.488281 -43.765625 35.953125 -42.171875 35.953125 -40.015625 L 35.953125 0 L 1.40625 0 L 1.40625 -41.421875 C 1.40625 -48.816406 2.550781 -55.039062 4.84375 -60.09375 C 7.132812 -65.15625 10.222656 -69.226562 14.109375 -72.3125 C 17.992188 -75.40625 22.300781 -77.648438 27.03125 -79.046875 C 31.757812 -80.453125 36.554688 -81.15625 41.421875 -81.15625 C 45.359375 -81.15625 49.242188 -80.476562 53.078125 -79.125 C 56.921875 -77.769531 60.429688 -75.5 63.609375 -72.3125 C 66.328125 -75.3125 69.675781 -77.507812 73.65625 -78.90625 C 77.632812 -80.3125 81.539062 -81.0625 85.375 -81.15625 C 90.332031 -81.15625 95.195312 -80.429688 99.96875 -78.984375 C 104.75 -77.535156 109.082031 -75.242188 112.96875 -72.109375 C 116.851562 -68.972656 119.960938 -64.875 122.296875 -59.8125 C 124.640625 -54.757812 125.8125 -48.628906 125.8125 -41.421875 L 125.8125 0 L 91.28125 0 L 91.28125 -40.015625 C 91.28125 -42.171875 90.71875 -43.765625 89.59375 -44.796875 C 88.46875 -45.828125 87.203125 -46.34375 85.796875 -46.34375 C 84.390625 -46.34375 83.125 -45.800781 82 -44.71875 C 80.882812 -43.644531 80.328125 -42.03125 80.328125 -39.875 Z M 80.328125 0 "/></g></g></g><g fill="#171616" fill-opacity="1"><g transform="translate(260.799796, 163.86574)"><g><path d="M 8.65625 -4.3125 L 1.53125 -0.765625 L -7.0625 -18 L -0.234375 -21.40625 C 1.867188 -22.457031 3.617188 -22.75 5.015625 -22.28125 C 6.078125 -21.925781 6.921875 -21.128906 7.546875 -19.890625 C 8.023438 -18.910156 8.21875 -17.960938 8.125 -17.046875 C 8.03125 -16.140625 7.628906 -15.378906 6.921875 -14.765625 C 8.117188 -15.140625 9.1875 -15.117188 10.125 -14.703125 C 11.0625 -14.296875 11.804688 -13.535156 12.359375 -12.421875 C 12.773438 -11.597656 12.988281 -10.800781 13 -10.03125 C 13.019531 -9.269531 12.90625 -8.59375 12.65625 -8 C 12.351562 -7.34375 11.945312 -6.765625 11.4375 -6.265625 C 10.925781 -5.765625 10.414062 -5.351562 9.90625 -5.03125 C 9.394531 -4.71875 8.976562 -4.476562 8.65625 -4.3125 Z M -2.34375 -16.71875 L -0.234375 -12.46875 L 3.125 -14.140625 C 3.945312 -14.554688 4.484375 -15.054688 4.734375 -15.640625 C 4.992188 -16.234375 4.953125 -16.875 4.609375 -17.5625 C 4.265625 -18.238281 3.8125 -18.632812 3.25 -18.75 C 2.582031 -18.925781 1.664062 -18.722656 0.5 -18.140625 Z M 1.09375 -9.828125 L 3.34375 -5.296875 L 6.796875 -7.015625 C 7.234375 -7.234375 7.6875 -7.507812 8.15625 -7.84375 C 8.632812 -8.175781 8.972656 -8.582031 9.171875 -9.0625 C 9.285156 -9.332031 9.328125 -9.628906 9.296875 -9.953125 C 9.273438 -10.273438 9.164062 -10.640625 8.96875 -11.046875 C 8.632812 -11.722656 8.238281 -12.132812 7.78125 -12.28125 C 7.320312 -12.4375 6.835938 -12.4375 6.328125 -12.28125 C 5.828125 -12.132812 5.351562 -11.953125 4.90625 -11.734375 Z M 1.09375 -9.828125 "/></g></g></g><g fill="#171616" fill-opacity="1"><g transform="translate(279.730507, 155.017998)"><g><path d="M 9.296875 -0.4375 C 7.460938 -0.28125 5.945312 -0.457031 4.75 -0.96875 C 3.5625 -1.488281 2.65625 -2.28125 2.03125 -3.34375 C 1.40625 -4.40625 1.03125 -5.65625 0.90625 -7.09375 L -0.140625 -19.3125 L 3.5 -19.625 L 4.546875 -7.40625 C 4.617188 -6.625 4.804688 -5.929688 5.109375 -5.328125 C 5.421875 -4.734375 5.890625 -4.289062 6.515625 -4 C 7.148438 -3.707031 7.984375 -3.601562 9.015625 -3.6875 C 10.046875 -3.78125 10.84375 -4.023438 11.40625 -4.421875 C 11.976562 -4.816406 12.363281 -5.335938 12.5625 -5.984375 C 12.757812 -6.628906 12.820312 -7.34375 12.75 -8.125 L 11.703125 -20.34375 L 15.34375 -20.65625 L 16.390625 -8.4375 C 16.515625 -7 16.363281 -5.703125 15.9375 -4.546875 C 15.507812 -3.390625 14.75 -2.453125 13.65625 -1.734375 C 12.570312 -1.023438 11.117188 -0.59375 9.296875 -0.4375 Z M 9.296875 -0.4375 "/></g></g></g><g fill="#171616" fill-opacity="1"><g transform="translate(301.525453, 153.778494)"><g><path d="M 7.015625 2.140625 L 1.640625 0.5 L 7.265625 -17.921875 L 12.640625 -16.28125 C 15.753906 -15.332031 17.890625 -13.804688 19.046875 -11.703125 C 20.210938 -9.609375 20.347656 -7.082031 19.453125 -4.125 C 18.546875 -1.175781 17.019531 0.835938 14.875 1.921875 C 12.738281 3.015625 10.117188 3.085938 7.015625 2.140625 Z M 9.796875 -13.75 L 6.078125 -1.546875 L 7.90625 -0.984375 C 9.125 -0.609375 10.257812 -0.46875 11.3125 -0.5625 C 12.363281 -0.664062 13.285156 -1.082031 14.078125 -1.8125 C 14.878906 -2.550781 15.515625 -3.675781 15.984375 -5.1875 C 16.421875 -6.625 16.515625 -7.863281 16.265625 -8.90625 C 16.015625 -9.957031 15.488281 -10.835938 14.6875 -11.546875 C 13.894531 -12.265625 12.882812 -12.8125 11.65625 -13.1875 Z M 9.796875 -13.75 "/></g></g></g><g fill="#171616" fill-opacity="1"><g transform="translate(322.010504, 160.679532)"><g><path d="M 5.71875 4.59375 L 1.34375 1.078125 L 13.40625 -13.9375 L 17.78125 -10.421875 C 20.320312 -8.378906 21.742188 -6.171875 22.046875 -3.796875 C 22.347656 -1.421875 21.53125 0.972656 19.59375 3.390625 C 17.65625 5.796875 15.488281 7.101562 13.09375 7.3125 C 10.707031 7.53125 8.25 6.625 5.71875 4.59375 Z M 14.203125 -9.125 L 6.203125 0.828125 L 7.703125 2.015625 C 8.691406 2.816406 9.691406 3.367188 10.703125 3.671875 C 11.722656 3.984375 12.738281 3.941406 13.75 3.546875 C 14.769531 3.160156 15.773438 2.351562 16.765625 1.125 C 17.703125 -0.0390625 18.25 -1.15625 18.40625 -2.21875 C 18.570312 -3.289062 18.414062 -4.304688 17.9375 -5.265625 C 17.46875 -6.222656 16.726562 -7.109375 15.71875 -7.921875 Z M 14.203125 -9.125 "/></g></g></g><g fill="#171616" fill-opacity="1"><g transform="translate(338.443762, 174.755253)"><g><path d="M 5.328125 9.328125 L 3.4375 6.03125 L 9.984375 2.28125 L 16.703125 -9.625 L 18.796875 -5.9375 L 14.015625 2.171875 L 23.453125 2.1875 L 25.53125 5.84375 L 11.875 5.578125 Z M 5.328125 9.328125 "/></g></g></g></svg>